<svg id="Layer_1" data-name="Layer 1" xmlns="http://www.w3.org/2000/svg" viewBox="0 0 427.51 400"><defs><style>.cls-1,.cls-12,.cls-18,.cls-5{fill:#5d96fc;}.cls-11,.cls-14,.cls-160,.cls-17,.cls-2,.cls-20{fill:#2f508a;}.cls-3{fill:#7dabfd;}.cls-4{fill:#bed5fe;}.cls-11,.cls-5{font-size:29.59px;}.cls-11,.cls-12,.cls-14,.cls-152,.cls-156,.cls-157,.cls-158,.cls-159,.cls-160,.cls-17,.cls-18,.cls-5,.cls-56{font-family:Lato-Regular, Lato;}.cls-6{letter-spacing:-0.09em;}.cls-7{letter-spacing:0em;}.cls-8{letter-spacing:-0.02em;}.cls-9{letter-spacing:0em;}.cls-10{letter-spacing:-0.02em;}.cls-12{font-size:15.66px;}.cls-13{letter-spacing:-0.03em;}.cls-14{font-size:11.61px;}.cls-15{letter-spacing:-0.03em;}.cls-156,.cls-157,.cls-158,.cls-159,.cls-16{fill:#e9f2ff;}.cls-17{font-size:22.73px;}.cls-18{font-size:6.9px;}.cls-19{letter-spacing:-0.03em;}.cls-20{font-size:9px;font-family:Lato-Bold, Lato;font-weight:700;}.cls-21{letter-spacing:0.01em;}.cls-22{letter-spacing:0.01em;}.cls-23{letter-spacing:0.01em;}.cls-24{letter-spacing:0.01em;}.cls-25{letter-spacing:0em;}.cls-26{letter-spacing:0.01em;}.cls-27{letter-spacing:0.02em;}.cls-28{letter-spacing:0.02em;}.cls-29{letter-spacing:0em;}.cls-30{letter-spacing:-0.02em;}.cls-31{letter-spacing:0.01em;}.cls-32{letter-spacing:0.01em;}.cls-33{letter-spacing:0.01em;}.cls-34{letter-spacing:0.01em;}.cls-35{letter-spacing:0.02em;}.cls-36{letter-spacing:0em;}.cls-37{letter-spacing:0.01em;}.cls-38{letter-spacing:0.01em;}.cls-39{letter-spacing:0.01em;}.cls-40{letter-spacing:-0.01em;}.cls-41{letter-spacing:0.02em;}.cls-42{letter-spacing:0.01em;}.cls-43{letter-spacing:0.01em;}.cls-44{letter-spacing:0em;}.cls-45{letter-spacing:0.02em;}.cls-46{letter-spacing:0.02em;}.cls-47{letter-spacing:0.01em;}.cls-48{letter-spacing:0em;}.cls-49{letter-spacing:0.01em;}.cls-50{letter-spacing:0em;}.cls-51{letter-spacing:0.01em;}.cls-52{letter-spacing:0.04em;}.cls-53{letter-spacing:0.01em;}.cls-54{letter-spacing:0.01em;}.cls-55{letter-spacing:0.03em;}.cls-56{font-size:7px;font-weight:400;}.cls-57{letter-spacing:0.02em;}.cls-58{letter-spacing:0.01em;}.cls-59{letter-spacing:0.02em;}.cls-60{letter-spacing:0.02em;}.cls-61{letter-spacing:0.01em;}.cls-62{letter-spacing:0em;}.cls-63{letter-spacing:0.01em;}.cls-64{letter-spacing:0.01em;}.cls-65{letter-spacing:0.02em;}.cls-66{letter-spacing:0.01em;}.cls-67{letter-spacing:0.01em;}.cls-68{letter-spacing:0.02em;}.cls-69{letter-spacing:0.02em;}.cls-70{letter-spacing:0.02em;}.cls-71{letter-spacing:0.01em;}.cls-72{letter-spacing:0em;}.cls-73{letter-spacing:0.01em;}.cls-74{letter-spacing:0.01em;}.cls-75{letter-spacing:0.01em;}.cls-76{letter-spacing:0.01em;}.cls-77{letter-spacing:0.01em;}.cls-78{letter-spacing:0.01em;}.cls-79{letter-spacing:0.01em;}.cls-80{letter-spacing:0.02em;}.cls-81{letter-spacing:0.01em;}.cls-82{letter-spacing:0em;}.cls-83{letter-spacing:0.01em;}.cls-84{letter-spacing:0.02em;}.cls-85{letter-spacing:0.01em;}.cls-86{letter-spacing:-0.06em;}.cls-87{letter-spacing:0.01em;}.cls-88{letter-spacing:0.02em;}.cls-89{letter-spacing:0.02em;}.cls-90{letter-spacing:0.01em;}.cls-91{letter-spacing:0.01em;}.cls-92{letter-spacing:0.01em;}.cls-93{letter-spacing:0.02em;}.cls-94{letter-spacing:0.02em;}.cls-95{letter-spacing:0em;}.cls-96{letter-spacing:0.01em;}.cls-97{letter-spacing:0.02em;}.cls-98{letter-spacing:0.02em;}.cls-99{letter-spacing:0.01em;}.cls-100{letter-spacing:0.01em;}.cls-101{letter-spacing:0.01em;}.cls-102{letter-spacing:0em;}.cls-103{letter-spacing:0.01em;}.cls-104{letter-spacing:0.01em;}.cls-105{letter-spacing:0.02em;}.cls-106{letter-spacing:0em;}.cls-107{letter-spacing:0.02em;}.cls-108{letter-spacing:0.02em;}.cls-109{letter-spacing:0.01em;}.cls-110{letter-spacing:0em;}.cls-111{letter-spacing:0.01em;}.cls-112{letter-spacing:0.02em;}.cls-113{letter-spacing:0em;}.cls-114{letter-spacing:0.01em;}.cls-115{letter-spacing:0.01em;}.cls-116{letter-spacing:0.01em;}.cls-117{letter-spacing:0em;}.cls-118{letter-spacing:0.01em;}.cls-119{letter-spacing:0.01em;}.cls-120{letter-spacing:0.02em;}.cls-121{letter-spacing:0.01em;}.cls-122{letter-spacing:0.03em;}.cls-123{letter-spacing:0.02em;}.cls-124{letter-spacing:0.03em;}.cls-125{letter-spacing:0.02em;}.cls-126{letter-spacing:0.01em;}.cls-127{letter-spacing:0.02em;}.cls-128{letter-spacing:0.01em;}.cls-129{letter-spacing:0em;}.cls-130{letter-spacing:0.02em;}.cls-131{letter-spacing:0.01em;}.cls-132{letter-spacing:0.01em;}.cls-133{letter-spacing:0.03em;}.cls-134{letter-spacing:0.02em;}.cls-135{letter-spacing:0.02em;}.cls-136{letter-spacing:0.03em;}.cls-137{letter-spacing:0.03em;}.cls-138{letter-spacing:0.01em;}.cls-139{letter-spacing:0.01em;}.cls-140{letter-spacing:0.01em;}.cls-141{letter-spacing:0.02em;}.cls-142{letter-spacing:0.03em;}.cls-143{letter-spacing:0.02em;}.cls-144{letter-spacing:0.02em;}.cls-145{letter-spacing:0em;}.cls-146{letter-spacing:0em;}.cls-147{letter-spacing:0.01em;}.cls-148{letter-spacing:0.01em;}.cls-149{letter-spacing:0.02em;}.cls-150{letter-spacing:0.03em;}.cls-151{letter-spacing:0.03em;}.cls-152,.cls-156{font-size:23.56px;}.cls-152{fill:#fff;}.cls-153{letter-spacing:-0.09em;}.cls-154{letter-spacing:-0.02em;}.cls-155{letter-spacing:-0.02em;}.cls-157{font-size:18px;}.cls-158{font-size:14px;}.cls-159{font-size:10px;}.cls-160{font-size:6.65px;}</style></defs><rect class="cls-1" x="266.51" width="161" height="400"/><rect class="cls-2" x="48.13" y="346" width="27.25" height="27.25"/><rect class="cls-1" x="84.26" y="346" width="27.25" height="27.25"/><rect class="cls-3" x="120.39" y="346" width="27.25" height="27.25"/><rect class="cls-4" x="156.53" y="346" width="27.25" height="27.25"/><text class="cls-5" transform="translate(0.03 40.17)"><tspan class="cls-6">T</tspan><tspan class="cls-7" x="14.79" y="0">ypog</tspan><tspan class="cls-8" x="77.84" y="0">r</tspan><tspan class="cls-9" x="89.2" y="0">ap</tspan><tspan class="cls-10" x="120.53" y="0">h</tspan><tspan x="136.51" y="0">y</tspan></text><text class="cls-11" transform="translate(0 70.6)">Styleguide</text><text class="cls-12" transform="translate(0.51 117.83)">Subtitle <tspan class="cls-13" x="56.7" y="0">e</tspan><tspan x="64.44" y="0">xample</tspan></text><text class="cls-14" transform="translate(0.99 134)">Subtitle <tspan class="cls-15" x="42.03" y="0">e</tspan><tspan x="47.76" y="0">xmaple 2</tspan></text><rect class="cls-16" x="1.3" y="158.94" width="186.9" height="58.98"/><text class="cls-17" transform="translate(31.37 192.88)">Open<tspan class="cls-1" x="55.23" y="0">GitOps</tspan></text><text class="cls-18" transform="translate(69.81 202.22)">Subtitle <tspan class="cls-19" x="24.98" y="0">e</tspan><tspan x="28.38" y="0">xmaple 2</tspan></text><text class="cls-20" transform="translate(1.26 252.69)"><tspan class="cls-21">T<tspan class="cls-22" x="5.44" y="0">h</tspan><tspan class="cls-23" x="10.68" y="0">e </tspan><tspan class="cls-24" x="17.32" y="0">G</tspan><tspan class="cls-25" x="23.92" y="0">i</tspan><tspan class="cls-26" x="26.37" y="0">t</tspan><tspan class="cls-27" x="29.98" y="0">O</tspan><tspan class="cls-28" x="37.33" y="0">p</tspan><tspan class="cls-29" x="42.56" y="0">s </tspan><tspan class="cls-30" x="48.32" y="0">W</tspan><tspan class="cls-31" x="57.54" y="0">o</tspan><tspan class="cls-32" x="62.75" y="0">r</tspan><tspan class="cls-33" x="66.48" y="0">ki</tspan><tspan class="cls-34" x="73.98" y="0">n</tspan><tspan class="cls-29" x="79.21" y="0">g </tspan><tspan class="cls-35" x="85.7" y="0">G</tspan><tspan class="cls-36" x="92.36" y="0">r</tspan><tspan class="cls-37" x="96.06" y="0">o</tspan><tspan class="cls-38" x="101.31" y="0">u</tspan><tspan class="cls-29" x="106.5" y="0">p </tspan><tspan class="cls-39" x="113.42" y="0">i</tspan><tspan class="cls-29" x="115.92" y="0">s a </tspan><tspan class="cls-40" x="128.21" y="0">W</tspan><tspan class="cls-29" x="137.56" y="0">G </tspan><tspan class="cls-38" x="145.89" y="0">u</tspan><tspan class="cls-41" x="151.08" y="0">n</tspan><tspan class="cls-42" x="156.35" y="0">de</tspan><tspan class="cls-29" x="166.5" y="0">r </tspan><tspan class="cls-43" x="172.01" y="0">t</tspan><tspan class="cls-22" x="175.54" y="0">h</tspan><tspan class="cls-29" x="180.78" y="0">e </tspan><tspan class="cls-44" x="187.42" y="0">C</tspan><tspan class="cls-45" x="193.47" y="0">N</tspan><tspan class="cls-44" x="200.44" y="0">C</tspan><tspan class="cls-29" x="206.49" y="0">F </tspan><tspan class="cls-37" x="213.38" y="0">A</tspan><tspan class="cls-28" x="219.9" y="0">p</tspan><tspan class="cls-29" x="225.13" y="0">p </tspan></tspan><tspan class="cls-46"><tspan x="0" y="11">D</tspan><tspan class="cls-47" x="6.87" y="11">e</tspan><tspan class="cls-48" x="11.75" y="11">l</tspan><tspan class="cls-49" x="14.19" y="11">i</tspan><tspan class="cls-50" x="16.7" y="11">v</tspan><tspan class="cls-51" x="21.46" y="11">e</tspan><tspan class="cls-52" x="26.38" y="11">r</tspan><tspan class="cls-29" x="30.37" y="11">y </tspan><tspan class="cls-53" x="37" y="11">S</tspan><tspan class="cls-54" x="41.93" y="11">I</tspan><tspan class="cls-55" x="44.86" y="11">G</tspan><tspan class="cls-29" x="51.66" y="11">.</tspan></tspan><tspan class="cls-56"><tspan class="cls-57" x="0" y="33">Th</tspan><tspan x="8.29" y="33">e </tspan><tspan class="cls-58" x="13.31" y="33">f</tspan><tspan class="cls-59" x="15.75" y="33">o</tspan><tspan class="cls-60" x="19.79" y="33">c</tspan><tspan class="cls-61" x="23.17" y="33">u</tspan><tspan class="cls-62" x="27.13" y="33">s </tspan><tspan class="cls-63" x="31.52" y="33">o</tspan><tspan x="35.46" y="33">f </tspan><tspan class="cls-64" x="39.17" y="33">t</tspan><tspan class="cls-65" x="41.85" y="33">h</tspan><tspan x="45.88" y="33">e </tspan><tspan class="cls-66" x="50.9" y="33">G</tspan><tspan class="cls-67" x="56.14" y="33">i</tspan><tspan class="cls-68" x="57.97" y="33">t</tspan><tspan class="cls-69" x="60.72" y="33">O</tspan><tspan class="cls-70" x="66.47" y="33">p</tspan><tspan x="70.45" y="33">s </tspan><tspan class="cls-71" x="74.84" y="33">W</tspan><tspan x="82.02" y="33">G </tspan><tspan class="cls-72" x="88.5" y="33">i</tspan><tspan x="90.33" y="33">s to </tspan><tspan class="cls-73" x="102.57" y="33">c</tspan><tspan class="cls-74" x="105.89" y="33">l</tspan><tspan class="cls-75" x="107.76" y="33">e</tspan><tspan class="cls-76" x="111.51" y="33">a</tspan><tspan class="cls-77" x="115.16" y="33">r</tspan><tspan class="cls-78" x="118.02" y="33">l</tspan><tspan x="119.9" y="33">y </tspan><tspan class="cls-79" x="124.84" y="33">d</tspan><tspan class="cls-80" x="128.85" y="33">e</tspan><tspan class="cls-81" x="132.63" y="33">fi</tspan><tspan class="cls-65" x="136.69" y="33">n</tspan><tspan x="140.72" y="33">e a </tspan><tspan class="cls-82" x="150.64" y="33">v</tspan><tspan class="cls-83" x="154.25" y="33">e</tspan><tspan class="cls-84" x="158" y="33">n</tspan><tspan class="cls-85" x="162.05" y="33">do</tspan><tspan class="cls-86" x="170.06" y="33">r</tspan><tspan class="cls-87" x="172.45" y="33">-</tspan><tspan class="cls-88" x="174.95" y="33">n</tspan><tspan class="cls-89" x="178.98" y="33">e</tspan><tspan class="cls-90" x="182.75" y="33">u</tspan><tspan class="cls-64" x="186.72" y="33">t</tspan><tspan class="cls-91" x="189.4" y="33">r</tspan><tspan class="cls-92" x="192.28" y="33">a</tspan><tspan class="cls-93" x="195.9" y="33">l</tspan><tspan x="197.81" y="33">, </tspan><tspan class="cls-94" x="200.65" y="33">p</tspan><tspan class="cls-77" x="204.65" y="33">r</tspan><tspan class="cls-95" x="207.51" y="33">i</tspan><tspan class="cls-65" x="209.34" y="33">n</tspan><tspan class="cls-96" x="213.37" y="33">c</tspan><tspan class="cls-95" x="216.69" y="33">i</tspan><tspan class="cls-97" x="218.51" y="33">p</tspan><tspan class="cls-74" x="222.49" y="33">l</tspan><tspan class="cls-98" x="224.36" y="33">e</tspan><tspan class="cls-71" x="228.16" y="33">-</tspan><tspan class="cls-74" x="230.63" y="33">l</tspan><tspan class="cls-57" x="232.51" y="33">e</tspan><tspan x="236.31" y="33">d </tspan><tspan class="cls-65" x="0" y="44">m</tspan><tspan class="cls-99" x="5.89" y="44">e</tspan><tspan class="cls-100" x="9.63" y="44">a</tspan><tspan class="cls-101" x="13.28" y="44">n</tspan><tspan class="cls-102" x="17.23" y="44">i</tspan><tspan class="cls-103" x="19.05" y="44">n</tspan><tspan x="23.05" y="44">g </tspan><tspan class="cls-104" x="27.98" y="44">o</tspan><tspan x="31.92" y="44">f </tspan><tspan class="cls-66" x="35.63" y="44">G</tspan><tspan class="cls-67" x="40.87" y="44">i</tspan><tspan class="cls-68" x="42.7" y="44">t</tspan><tspan class="cls-69" x="45.45" y="44">O</tspan><tspan class="cls-70" x="51.19" y="44">p</tspan><tspan class="cls-105" x="55.18" y="44">s</tspan><tspan x="58.38" y="44">. </tspan><tspan class="cls-57" x="61.22" y="44">T</tspan><tspan class="cls-91" x="65.48" y="44">h</tspan><tspan class="cls-72" x="69.43" y="44">i</tspan><tspan x="71.25" y="44">s </tspan><tspan class="cls-22" x="75.64" y="44">w</tspan><tspan class="cls-106" x="81.1" y="44">i</tspan><tspan x="82.9" y="44">ll </tspan><tspan class="cls-107" x="87.83" y="44">e</tspan><tspan class="cls-108" x="91.63" y="44">s</tspan><tspan class="cls-89" x="94.82" y="44">t</tspan><tspan class="cls-83" x="97.54" y="44">a</tspan><tspan class="cls-109" x="101.18" y="44">b</tspan><tspan x="105.19" y="44">l</tspan><tspan class="cls-110" x="106.98" y="44">i</tspan><tspan class="cls-111" x="108.8" y="44">s</tspan><tspan x="111.9" y="44">h a </tspan><tspan class="cls-58" x="122.04" y="44">f</tspan><tspan class="cls-107" x="124.48" y="44">o</tspan><tspan class="cls-81" x="128.51" y="44">u</tspan><tspan class="cls-112" x="132.46" y="44">n</tspan><tspan class="cls-113" x="136.51" y="44">d</tspan><tspan class="cls-114" x="140.45" y="44">a</tspan><tspan class="cls-115" x="144.04" y="44">t</tspan><tspan class="cls-101" x="146.69" y="44">i</tspan><tspan class="cls-116" x="148.54" y="44">o</tspan><tspan x="152.54" y="44">n </tspan><tspan class="cls-58" x="157.78" y="44">f</tspan><tspan class="cls-85" x="160.22" y="44">o</tspan><tspan x="164.22" y="44">r </tspan><tspan class="cls-117" x="168.39" y="44">i</tspan><tspan class="cls-118" x="170.21" y="44">n</tspan><tspan x="174.16" y="44">t</tspan><tspan class="cls-119" x="176.77" y="44">e</tspan><tspan class="cls-72" x="180.53" y="44">r</tspan><tspan class="cls-116" x="183.38" y="44">o</tspan><tspan class="cls-120" x="187.37" y="44">p</tspan><tspan class="cls-83" x="191.41" y="44">e</tspan><tspan class="cls-101" x="195.17" y="44">r</tspan><tspan class="cls-83" x="198.05" y="44">a</tspan><tspan class="cls-121" x="201.69" y="44">b</tspan><tspan class="cls-106" x="205.67" y="44">i</tspan><tspan x="207.47" y="44">l</tspan><tspan class="cls-67" x="209.26" y="44">i</tspan><tspan class="cls-122" x="211.09" y="44">t</tspan><tspan x="213.94" y="44">y </tspan><tspan class="cls-123" x="0" y="55">b</tspan><tspan class="cls-92" x="4.07" y="55">e</tspan><tspan class="cls-124" x="7.81" y="55">t</tspan><tspan class="cls-111" x="10.66" y="55">w</tspan><tspan class="cls-125" x="16.08" y="55">e</tspan><tspan class="cls-126" x="19.88" y="55">e</tspan><tspan x="23.64" y="55">n t</tspan><tspan class="cls-127" x="31.49" y="55">o</tspan><tspan class="cls-128" x="35.54" y="55">o</tspan><tspan class="cls-129" x="39.5" y="55">l</tspan><tspan class="cls-130" x="41.33" y="55">s</tspan><tspan x="44.54" y="55">, </tspan><tspan class="cls-111" x="47.37" y="55">c</tspan><tspan class="cls-116" x="50.71" y="55">o</tspan><tspan class="cls-131" x="54.7" y="55">n</tspan><tspan class="cls-58" x="58.65" y="55">f</tspan><tspan class="cls-85" x="61.1" y="55">o</tspan><tspan class="cls-75" x="65.09" y="55">r</tspan><tspan class="cls-131" x="67.99" y="55">m</tspan><tspan class="cls-76" x="73.8" y="55">a</tspan><tspan class="cls-65" x="77.45" y="55">n</tspan><tspan class="cls-132" x="81.48" y="55">c</tspan><tspan class="cls-57" x="84.8" y="55">e</tspan><tspan x="88.6" y="55">, </tspan><tspan class="cls-76" x="91.44" y="55">a</tspan><tspan class="cls-112" x="95.09" y="55">n</tspan><tspan x="99.13" y="55">d </tspan><tspan class="cls-96" x="104.39" y="55">c</tspan><tspan class="cls-83" x="107.71" y="55">e</tspan><tspan class="cls-133" x="111.47" y="55">r</tspan><tspan class="cls-115" x="114.53" y="55">t</tspan><tspan class="cls-103" x="117.18" y="55">i</tspan><tspan class="cls-134" x="119.08" y="55">fi</tspan><tspan class="cls-135" x="123.18" y="55">c</tspan><tspan class="cls-114" x="126.61" y="55">a</tspan><tspan class="cls-115" x="130.21" y="55">t</tspan><tspan class="cls-91" x="132.85" y="55">i</tspan><tspan class="cls-85" x="134.7" y="55">o</tspan><tspan class="cls-136" x="138.7" y="55">n</tspan><tspan x="142.79" y="55">. </tspan><tspan class="cls-137" x="145.63" y="55">L</tspan><tspan class="cls-138" x="149.43" y="55">a</tspan><tspan class="cls-127" x="153.06" y="55">s</tspan><tspan class="cls-115" x="156.25" y="55">ti</tspan><tspan class="cls-103" x="160.73" y="55">n</tspan><tspan x="164.72" y="55">g </tspan><tspan class="cls-94" x="169.65" y="55">p</tspan><tspan class="cls-72" x="173.65" y="55">r</tspan><tspan class="cls-139" x="176.5" y="55">o</tspan><tspan class="cls-140" x="180.48" y="55">g</tspan><tspan class="cls-91" x="184.16" y="55">r</tspan><tspan class="cls-66" x="187.04" y="55">am</tspan><tspan class="cls-141" x="196.53" y="55">s</tspan><tspan x="199.74" y="55">, </tspan><tspan class="cls-103" x="202.58" y="55">d</tspan><tspan class="cls-59" x="206.59" y="55">o</tspan><tspan class="cls-89" x="210.63" y="55">c</tspan><tspan class="cls-81" x="214.01" y="55">u</tspan><tspan class="cls-65" x="217.96" y="55">m</tspan><tspan class="cls-83" x="223.85" y="55">e</tspan><tspan class="cls-118" x="227.61" y="55">n</tspan><tspan class="cls-142" x="231.55" y="55">t</tspan><tspan class="cls-141" x="234.36" y="55">s</tspan><tspan x="237.57" y="55">, </tspan><tspan class="cls-100" x="0" y="66">a</tspan><tspan class="cls-143" x="3.65" y="66">n</tspan><tspan x="7.69" y="66">d </tspan><tspan class="cls-111" x="12.96" y="66">c</tspan><tspan class="cls-144" x="16.29" y="66">o</tspan><tspan class="cls-76" x="20.34" y="66">d</tspan><tspan x="24.36" y="66">e </tspan><tspan class="cls-76" x="29.38" y="66">a</tspan><tspan class="cls-95" x="33.03" y="66">r</tspan><tspan x="35.88" y="66">e </tspan><tspan class="cls-97" x="40.9" y="66">p</tspan><tspan class="cls-145" x="44.87" y="66">l</tspan><tspan class="cls-66" x="46.67" y="66">an</tspan><tspan class="cls-88" x="54.32" y="66">ne</tspan><tspan x="62.15" y="66">d to l</tspan><tspan class="cls-58" x="77.06" y="66">i</tspan><tspan class="cls-146" x="78.93" y="66">v</tspan><tspan x="82.54" y="66">e </tspan><tspan class="cls-147" x="87.56" y="66">w</tspan><tspan class="cls-67" x="93.02" y="66">i</tspan><tspan class="cls-92" x="94.85" y="66">t</tspan><tspan class="cls-91" x="97.53" y="66">h</tspan><tspan class="cls-95" x="101.48" y="66">i</tspan><tspan x="103.31" y="66">n </tspan><tspan class="cls-64" x="108.55" y="66">t</tspan><tspan class="cls-65" x="111.23" y="66">h</tspan><tspan x="115.26" y="66">e </tspan><tspan class="cls-69" x="120.28" y="66">O</tspan><tspan class="cls-120" x="126.02" y="66">p</tspan><tspan class="cls-119" x="130.06" y="66">e</tspan><tspan class="cls-144" x="133.82" y="66">n</tspan><tspan class="cls-66" x="137.87" y="66">G</tspan><tspan class="cls-148" x="143.11" y="66">i</tspan><tspan class="cls-149" x="144.94" y="66">t</tspan><tspan class="cls-69" x="147.69" y="66">O</tspan><tspan class="cls-70" x="153.44" y="66">p</tspan><tspan x="157.42" y="66">s </tspan><tspan class="cls-94" x="161.81" y="66">p</tspan><tspan class="cls-110" x="165.81" y="66">r</tspan><tspan class="cls-114" x="168.66" y="66">o</tspan><tspan class="cls-111" x="172.59" y="66">j</tspan><tspan class="cls-125" x="174.44" y="66">e</tspan><tspan class="cls-150" x="178.24" y="66">c</tspan><tspan class="cls-151" x="181.74" y="66">t</tspan><tspan x="184.55" y="66">.</tspan></tspan></text><text class="cls-152" transform="translate(285.72 39.81)"><tspan class="cls-153">T</tspan><tspan x="11.78" y="0">ypog</tspan><tspan class="cls-154" x="62" y="0">r</tspan><tspan x="71.05" y="0">ap</tspan><tspan class="cls-155" x="96" y="0">h</tspan><tspan x="108.73" y="0">y</tspan></text><text class="cls-156" transform="translate(291.88 64.05)">Styleguide</text><text class="cls-17" transform="translate(285.02 119.2)">OpenGitOps</text><text class="cls-157" transform="translate(285.78 146.43)">Title 1</text><text class="cls-158" transform="translate(285.78 164.43)">Title 2</text><text class="cls-159" transform="translate(285.78 182.43)">Title 3</text><text class="cls-160" transform="translate(48.61 382.54)">#2f508a</text><text class="cls-160" transform="translate(83.61 382.54)">#5d96fc</text><text class="cls-160" transform="translate(120.61 382.54)">#7dabfd</text><text class="cls-160" transform="translate(157.61 382.54)">#bed5fe</text></svg>