<svg id="e95dc8a9-4100-4166-a5b7-cf7377902240" data-name="Layer 1" xmlns="http://www.w3.org/2000/svg" viewBox="0 0 774.98639 188.64014"><defs><style>.f568bde5-5723-4590-a751-10093b83dab7{fill:none;}.fd10d706-3dda-4b5a-8037-51eff35f061d{fill:#aecafd;}.a3e349a4-4bc4-4bb5-82f1-8ad8192231c5{fill:#8db5fd;}.eebac8fe-271a-455c-9092-66a74c2ae71d{fill:#5d96fc;}.bc84b439-f44c-4dee-840c-e66a561b9904{fill:#7dabfd;}.e64f64fb-ad11-4d9d-a3ac-cbda1a21cc3b{fill:#9ec0fd;}.b823d18b-0950-483d-bca4-8cc59e89a570{fill:#70a2fc;}.b3751db5-b933-4c5c-8f01-9041fffb0a51{fill:#75a6fc;}.e082e6a1-c417-40c5-a582-35d2d00ed842{fill:#6da0fc;}.e7585af0-44d5-475f-94c3-6095f4ef9f6f{fill:#639afc;}.bee3c98e-4ff3-4a60-807d-a38b34accbdc{fill:#2f508a;}</style></defs><path class="f568bde5-5723-4590-a751-10093b83dab7" d="M411.84045,132.54089a8.84952,8.84952,0,0,0-3.64776-2.99487,12.134,12.134,0,0,0-4.909-.94562,12.91171,12.91171,0,0,0-6.86774,1.80127,19.80061,19.80061,0,0,0-5.42669,5.08875v22.06787a12.88722,12.88722,0,0,0,4.84143,4.18848,13.86079,13.86079,0,0,0,5.87683,1.21594q6.34963,0,9.7727-4.54877,3.42234-4.54835,3.42273-12.97034a32.38842,32.38842,0,0,0-.78808-7.65576A14.97354,14.97354,0,0,0,411.84045,132.54089Z" transform="translate(-10.01361 -39.65973)"/><path class="f568bde5-5723-4590-a751-10093b83dab7" d="M685.24811,117.63409a19.93749,19.93749,0,0,0-7.20563-5.02117,26.21647,26.21647,0,0,0-18.87024,0,20.14115,20.14115,0,0,0-7.228,5.02117,22.38369,22.38369,0,0,0-4.61633,7.99378,35.86609,35.86609,0,0,0,0,21.32434,22.40165,22.40165,0,0,0,4.61633,7.97144,19.89222,19.89222,0,0,0,7.228,4.9989,26.54142,26.54142,0,0,0,18.87024,0,19.69259,19.69259,0,0,0,7.20563-4.9989,22.59583,22.59583,0,0,0,4.59338-7.97144,35.86609,35.86609,0,0,0,0-21.32434A22.57726,22.57726,0,0,0,685.24811,117.63409Z" transform="translate(-10.01361 -39.65973)"/><path class="f568bde5-5723-4590-a751-10093b83dab7" d="M359.37518,117.63409a19.93745,19.93745,0,0,0-7.20562-5.02117,26.21647,26.21647,0,0,0-18.87024,0,20.141,20.141,0,0,0-7.228,5.02117,22.38354,22.38354,0,0,0-4.61633,7.99378,35.86609,35.86609,0,0,0,0,21.32434,22.4015,22.4015,0,0,0,4.61633,7.97144,19.89205,19.89205,0,0,0,7.228,4.9989,26.54142,26.54142,0,0,0,18.87024,0,19.69255,19.69255,0,0,0,7.20562-4.9989,22.59585,22.59585,0,0,0,4.59339-7.97144,35.86609,35.86609,0,0,0,0-21.32434A22.57728,22.57728,0,0,0,359.37518,117.63409Z" transform="translate(-10.01361 -39.65973)"/><path class="f568bde5-5723-4590-a751-10093b83dab7" d="M457.18994,131.63989a10.086,10.086,0,0,0-3.62475-2.61163,12.23333,12.23333,0,0,0-4.88672-.92328q-5.8093,0-9.14209,3.35516a15.78528,15.78528,0,0,0-4.14319,9.29956h24.81463a16.25,16.25,0,0,0-.7658-5.11108A11.39739,11.39739,0,0,0,457.18994,131.63989Z" transform="translate(-10.01361 -39.65973)"/><path class="f568bde5-5723-4590-a751-10093b83dab7" d="M737.71338,132.54089a8.84961,8.84961,0,0,0-3.64777-2.99487,12.134,12.134,0,0,0-4.909-.94562,12.91166,12.91166,0,0,0-6.86774,1.80127,19.80064,19.80064,0,0,0-5.4267,5.08875v22.06787a12.88722,12.88722,0,0,0,4.84143,4.18848,13.86082,13.86082,0,0,0,5.87683,1.21594q6.34965,0,9.77271-4.54877,3.42232-4.54835,3.42273-12.97034a32.38785,32.38785,0,0,0-.78809-7.65576A14.97353,14.97353,0,0,0,737.71338,132.54089Z" transform="translate(-10.01361 -39.65973)"/><path class="fd10d706-3dda-4b5a-8037-51eff35f061d" d="M28.3161,153.65479a4.35559,4.35559,0,0,1-4.35553,4.35559H52.19641a4.35556,4.35556,0,0,1,0-8.71112H23.96057A4.35565,4.35565,0,0,1,28.3161,153.65479Z" transform="translate(-10.01361 -39.65973)"/><path class="a3e349a4-4bc4-4bb5-82f1-8ad8192231c5" d="M53.09814,116.858h-.90167a4.35553,4.35553,0,1,1,0-8.71106H13.5387c-.00867.03058-.0163.06159-.025.09216q-.576,2.04465-1.061,4.124c-.01062.04571-.02271.09082-.03333.13653q-.47451,2.049-.855,4.13391c-.01385.075-.02936.14942-.043.22449H53.09753Z" transform="translate(-10.01361 -39.65973)"/><path class="eebac8fe-271a-455c-9092-66a74c2ae71d" d="M47.84088,112.50244a4.35547,4.35547,0,0,0,4.35559,4.35553H71.87378a81.2702,81.2702,0,0,1,2.37311-8.71106H52.19647A4.35547,4.35547,0,0,0,47.84088,112.50244Z" transform="translate(-10.01361 -39.65973)"/><path class="bc84b439-f44c-4dee-840c-e66a561b9904" d="M72.17181,98.38446A4.35534,4.35534,0,0,1,67.81628,102.74H76.245a81.459,81.459,0,0,1,4.22515-8.71106H67.81628A4.35538,4.35538,0,0,1,72.17181,98.38446Z" transform="translate(-10.01361 -39.65973)"/><path class="eebac8fe-271a-455c-9092-66a74c2ae71d" d="M67.81628,102.74a4.35553,4.35553,0,0,0,0-8.71106H18.79987a93.55259,93.55259,0,0,0-3.547,8.71106H67.81628Z" transform="translate(-10.01361 -39.65973)"/><path class="e64f64fb-ad11-4d9d-a3ac-cbda1a21cc3b" d="M36.126,84.86725a4.35542,4.35542,0,0,1-4.35553,4.35553H66.91516a4.35553,4.35553,0,0,1,0-8.71106H31.77045A4.35546,4.35546,0,0,1,36.126,84.86725Z" transform="translate(-10.01361 -39.65973)"/><path class="eebac8fe-271a-455c-9092-66a74c2ae71d" d="M31.77045,89.22278a4.35553,4.35553,0,0,0,0-8.71106H26.53754a94.14332,94.14332,0,0,0-5.32685,8.71106H31.77045Z" transform="translate(-10.01361 -39.65973)"/><path class="eebac8fe-271a-455c-9092-66a74c2ae71d" d="M62.55963,84.86725a4.35546,4.35546,0,0,0,4.35553,4.35553h16.4657a81.95824,81.95824,0,0,1,6.56824-8.71106H66.91516A4.3555,4.3555,0,0,0,62.55963,84.86725Z" transform="translate(-10.01361 -39.65973)"/><path class="a3e349a4-4bc4-4bb5-82f1-8ad8192231c5" d="M72.17181,57.23212a4.35546,4.35546,0,0,1,4.35553-4.35553H56.0365c-.07971.04754-.1601.09405-.23969.14172q-1.40368.84192-2.77575,1.73041c-.17188.11133-.34186.22516-.51294.33764-.92035.60492-1.83234,1.2215-2.72986,1.85749-.03034.02148-.0614.042-.09168.06354-.91491.65-1.8139,1.3208-2.70422,2.00219-.1712.131-.343.26129-.51324.3935q-1.2888,1.00039-2.54193,2.04339c-.056.04663-.111.09442-.16694.14118H76.52734A4.35558,4.35558,0,0,1,72.17181,57.23212Z" transform="translate(-10.01361 -39.65973)"/><path class="e64f64fb-ad11-4d9d-a3ac-cbda1a21cc3b" d="M81.18341,57.23212a4.3556,4.3556,0,0,1-4.35565,4.35553h36.91089a80.61257,80.61257,0,0,1,28.006-8.71106H76.82776A4.35548,4.35548,0,0,1,81.18341,57.23212Z" transform="translate(-10.01361 -39.65973)"/><path class="b823d18b-0950-483d-bca4-8cc59e89a570" d="M72.17181,57.23212a4.35558,4.35558,0,0,0,4.35553,4.35553h.30042a4.35553,4.35553,0,1,0,0-8.71106h-.30042A4.35546,4.35546,0,0,0,72.17181,57.23212Z" transform="translate(-10.01361 -39.65973)"/><path class="eebac8fe-271a-455c-9092-66a74c2ae71d" d="M104.1626,39.65973a93.8414,93.8414,0,0,0-37.59149,7.80994h75.183A93.84147,93.84147,0,0,0,104.1626,39.65973Z" transform="translate(-10.01361 -39.65973)"/><path class="bc84b439-f44c-4dee-840c-e66a561b9904" d="M30.68982,126.01965a4.35546,4.35546,0,0,1-4.35553,4.35553H25.16266l-.00061.00006H70.16a82.429,82.429,0,0,1,.83112-8.71118h-45.829l.00061.00006h1.17163A4.35546,4.35546,0,0,1,30.68982,126.01965Z" transform="translate(-10.01361 -39.65973)"/><path class="eebac8fe-271a-455c-9092-66a74c2ae71d" d="M70.10706,135.48169H10.01361q.0759,4.40781.54926,8.71112h60.162A82.64776,82.64776,0,0,1,70.10706,135.48169Z" transform="translate(-10.01361 -39.65973)"/><path class="b3751db5-b933-4c5c-8f01-9041fffb0a51" d="M47.84088,153.65479a4.35555,4.35555,0,0,0,4.35553,4.35559H73.65369a81.42805,81.42805,0,0,1-2.13471-8.71112H52.19641A4.35561,4.35561,0,0,0,47.84088,153.65479Z" transform="translate(-10.01361 -39.65973)"/><path class="bc84b439-f44c-4dee-840c-e66a561b9904" d="M19.30463,153.65479a4.35557,4.35557,0,0,1,4.35553-4.35553H11.26465q.02546.15444.05121.30883.32556,1.92883.72778,3.83283c.04028.19012.08246.37951.1239.56921q.4183,1.91565.91095,3.80145c.01746.06647.0362.13245.05377.1988h10.5279A4.35551,4.35551,0,0,1,19.30463,153.65479Z" transform="translate(-10.01361 -39.65973)"/><path class="e082e6a1-c417-40c5-a582-35d2d00ed842" d="M19.30463,153.65479a4.35551,4.35551,0,0,0,4.35553,4.35559h.30041a4.35556,4.35556,0,0,0,0-8.71112h-.30041A4.35557,4.35557,0,0,0,19.30463,153.65479Z" transform="translate(-10.01361 -39.65973)"/><path class="e082e6a1-c417-40c5-a582-35d2d00ed842" d="M82.80524,177.83563H20.89362c.06951.13129.13787.26325.208.39417q.34342.64105.69776,1.27551c.15777.28394.31476.56836.4754.85046.25189.44239.5097.881.76855,1.31885.15192.257.30158.51557.45582.771.30011.49688.60754.98883.91656,1.47967.12018.19092.23694.38428.35846.57428q.64993,1.01632,1.32452,2.0149l.0224.03228h63.0503A81.93515,81.93515,0,0,1,82.80524,177.83563Z" transform="translate(-10.01361 -39.65973)"/><path class="bc84b439-f44c-4dee-840c-e66a561b9904" d="M104.045,200.36432H66.91516a4.35556,4.35556,0,0,1,0-8.71112h26.901l-.00006-.00006H29.83575c.03449.04425.06788.08941.10242.1336Q30.75006,192.825,31.59,193.841c.10852.13111.22046.2594.32965.3899q.68948.82379,1.397,1.63208c.18347.20941.369.41687.55426.62463q.63327.70991,1.2807,1.40662c.18408.19818.36719.39733.55292.59393q.82727.8757,1.67535,1.73041c.04792.04815.09442.09771.1424.14581H104.0451Z" transform="translate(-10.01361 -39.65973)"/><path class="eebac8fe-271a-455c-9092-66a74c2ae71d" d="M62.55963,196.00873a4.35559,4.35559,0,0,0,4.35553,4.35559H104.045a81.89914,81.89914,0,0,1-10.22888-8.71112h-26.901A4.35557,4.35557,0,0,0,62.55963,196.00873Z" transform="translate(-10.01361 -39.65973)"/><path class="a3e349a4-4bc4-4bb5-82f1-8ad8192231c5" d="M70.06921,209.82635a4.35553,4.35553,0,1,1,4.35614,4.35547H96.6524a4.3555,4.3555,0,0,1,.00062-8.711h15.40759l-.00006-.00007H43.04962c.09448.08069.18988.16034.28467.24067q1.20327,1.01916,2.43884,2.00146c.05725.04535.11328.09222.17066.13739.86218.679,1.73986,1.33911,2.626,1.98834q.26817.19658.5373.39185,1.31424.94877,2.66052,1.855c.1405.09424.283.18555.424.279q1.27368.84457,2.57526,1.64887c.09027.05566.17944.113.26989.16845H74.42413A4.35543,4.35543,0,0,1,70.06921,209.82635Z" transform="translate(-10.01361 -39.65973)"/><path class="a3e349a4-4bc4-4bb5-82f1-8ad8192231c5" d="M118.882,214.18182H135.947a80.56541,80.56541,0,0,1-12.788-3.58374A4.34943,4.34943,0,0,1,118.882,214.18182Z" transform="translate(-10.01361 -39.65973)"/><path class="eebac8fe-271a-455c-9092-66a74c2ae71d" d="M78.78027,209.82635a4.35553,4.35553,0,1,0-4.35614,4.35547l.00061.00006.00061-.00006A4.35542,4.35542,0,0,0,78.78027,209.82635Z" transform="translate(-10.01361 -39.65973)"/><path class="eebac8fe-271a-455c-9092-66a74c2ae71d" d="M92.29749,209.82635a4.35546,4.35546,0,0,0,4.35491,4.35547l.00062.00006h22.22833l.00061-.00006a4.34943,4.34943,0,0,0,4.2771-3.58374,80.82674,80.82674,0,0,1-11.09845-5.12725H96.653A4.35557,4.35557,0,0,0,92.29749,209.82635Z" transform="translate(-10.01361 -39.65973)"/><path class="eebac8fe-271a-455c-9092-66a74c2ae71d" d="M104.1626,227.99945a93.86322,93.86322,0,0,0,36.90478-7.50952H67.25781A93.86323,93.86323,0,0,0,104.1626,227.99945Z" transform="translate(-10.01361 -39.65973)"/><path class="eebac8fe-271a-455c-9092-66a74c2ae71d" d="M26.33429,130.37518a4.35553,4.35553,0,0,0,0-8.71106h-15.561q-.55435,4.29739-.71094,8.71106H26.33429Z" transform="translate(-10.01361 -39.65973)"/><path class="e64f64fb-ad11-4d9d-a3ac-cbda1a21cc3b" d="M71.45312,163.86078a4.30422,4.30422,0,0,1-.28253,7.37207,4.76914,4.76914,0,0,1-.49463.2475,4.18678,4.18678,0,0,1-1.65814.34765H79.33429a81.39726,81.39726,0,0,1-3.91534-8.71112H69.01788a4.33491,4.33491,0,0,1,2.43524.7439Z" transform="translate(-10.01361 -39.65973)"/><path class="b823d18b-0950-483d-bca4-8cc59e89a570" d="M70.676,171.48035a4.18645,4.18645,0,0,1-1.65808.34759,4.35553,4.35553,0,1,1,0-8.71106H14.64325c.02631.08057.052.1615.07855.242q.6471,1.96078,1.37818,3.88354c.0639.1684.12707.337.192.50488q.74277,1.9227,1.5672,3.80292c.04053.09259.08063.18537.12146.27777H69.01782A4.18678,4.18678,0,0,0,70.676,171.48035Z" transform="translate(-10.01361 -39.65973)"/><path class="b823d18b-0950-483d-bca4-8cc59e89a570" d="M72.62958,165.03723a4.35811,4.35811,0,0,1,0,4.87036,4.35782,4.35782,0,0,0,0-4.87036Z" transform="translate(-10.01361 -39.65973)"/><path class="eebac8fe-271a-455c-9092-66a74c2ae71d" d="M64.66229,167.47241a4.35558,4.35558,0,0,0,4.35559,4.35553,4.18645,4.18645,0,0,0,1.65808-.34759,4.76914,4.76914,0,0,0,.49463-.2475,4.346,4.346,0,1,0-6.5083-3.76044Z" transform="translate(-10.01361 -39.65973)"/><path class="e7585af0-44d5-475f-94c3-6095f4ef9f6f" d="M105.72845,66.39368H38.44269q-.16608.16186-.33185.324-.696.6851-1.37744,1.38507c-.17456.17908-.351.35633-.52411.53681q-.919.95774-1.81281,1.93969c-.08429.09284-.16571.18818-.24963.28138q-.768.85346-1.51526,1.7257c-.18.21-.35773.42218-.53589.63385q-.62008.73655-1.22509,1.48578-.16095.19923-.32129.39893H95.06219A81.82211,81.82211,0,0,1,105.72845,66.39368Z" transform="translate(-10.01361 -39.65973)"/><path class="eebac8fe-271a-455c-9092-66a74c2ae71d" d="M197.58154,39.96008a93.73466,93.73466,0,0,0-46.60876,12.32831c.16687-.001.33118-.01263.49829-.01263a81.504,81.504,0,0,1,79.94867,66.28814H196.19019a47.42141,47.42141,0,1,0-11.66413,48.81641H164.06543V144.77094h66.04309v66.288H207.7467V193.00818a80.95552,80.95552,0,0,1-56.27563,22.6756c-.35028,0-.69513-.022-1.04437-.02649A94.17508,94.17508,0,1,0,197.58154,39.96008Z" transform="translate(-10.01361 -39.65973)"/><path class="eebac8fe-271a-455c-9092-66a74c2ae71d" d="M365.76978,112.54535a29.08479,29.08479,0,0,0-10.06537-6.82312,35.8636,35.8636,0,0,0-25.96295,0,29.1357,29.1357,0,0,0-10.0431,6.82312,30.73124,30.73124,0,0,0-6.48516,10.44788,39.705,39.705,0,0,0,0,26.6159,30.47842,30.47842,0,0,0,6.48516,10.42633,29.0356,29.0356,0,0,0,10.0431,6.77783,36.1839,36.1839,0,0,0,25.96295,0,28.98584,28.98584,0,0,0,10.06537-6.77783,30.45626,30.45626,0,0,0,6.48516-10.42633,39.69212,39.69212,0,0,0,0-26.6159A30.70875,30.70875,0,0,0,365.76978,112.54535Zm-1.80121,34.40686a22.59585,22.59585,0,0,1-4.59339,7.97144,19.69255,19.69255,0,0,1-7.20562,4.9989,26.54142,26.54142,0,0,1-18.87024,0,19.89205,19.89205,0,0,1-7.228-4.9989,22.4015,22.4015,0,0,1-4.61633-7.97144,35.86609,35.86609,0,0,1,0-21.32434,22.38354,22.38354,0,0,1,4.61633-7.99378,20.141,20.141,0,0,1,7.228-5.02117,26.21647,26.21647,0,0,1,18.87024,0,19.93745,19.93745,0,0,1,7.20562,5.02117,22.57728,22.57728,0,0,1,4.59339,7.99378,35.86609,35.86609,0,0,1,0,21.32434Z" transform="translate(-10.01361 -39.65973)"/><path class="eebac8fe-271a-455c-9092-66a74c2ae71d" d="M418.5061,128.082a14.68964,14.68964,0,0,0-5.4497-4.45813,16.466,16.466,0,0,0-7.11579-1.50861,17.08267,17.08267,0,0,0-8.66894,2.1615,24.3548,24.3548,0,0,0-6.68793,5.71936l-.676-5.40368a2.04331,2.04331,0,0,0-2.16144-1.66675h-4.77387v61.06872h8.01679v-20.176a16.26719,16.26719,0,0,0,5.29156,3.96271,17.01037,17.01037,0,0,0,7.22791,1.39642,18.31805,18.31805,0,0,0,8.26416-1.82428,18.08805,18.08805,0,0,0,6.1925-4.9989,22.85625,22.85625,0,0,0,3.87287-7.52057,31.47013,31.47013,0,0,0,1.35107-9.3902,37.547,37.547,0,0,0-1.21594-10.043A21.40162,21.40162,0,0,0,418.5061,128.082Zm-7.02588,30.332q-3.42342,4.54953-9.7727,4.54877a13.86079,13.86079,0,0,1-5.87683-1.21594,12.88722,12.88722,0,0,1-4.84143-4.18848V135.49042a19.80061,19.80061,0,0,1,5.42669-5.08875,12.91171,12.91171,0,0,1,6.86774-1.80127,12.134,12.134,0,0,1,4.909.94562,8.84952,8.84952,0,0,1,3.64776,2.99487,14.97354,14.97354,0,0,1,2.27442,5.24695,32.38842,32.38842,0,0,1,.78808,7.65576Q414.90295,153.86517,411.48022,158.41394Z" transform="translate(-10.01361 -39.65973)"/><path class="eebac8fe-271a-455c-9092-66a74c2ae71d" d="M462.05438,127.542a16.99959,16.99959,0,0,0-5.98974-3.96344,20.37619,20.37619,0,0,0-7.56592-1.37341,22.03458,22.03458,0,0,0-8.91779,1.73364,19.39518,19.39518,0,0,0-6.7102,4.77381,21.02552,21.02552,0,0,0-4.21082,7.18341,26.58666,26.58666,0,0,0-1.46325,8.917,31.04163,31.04163,0,0,0,1.62072,10.44861,21.49119,21.49119,0,0,0,4.52649,7.63354,19.111,19.111,0,0,0,6.89069,4.68323,23.20116,23.20116,0,0,0,8.71429,1.59918,29.90431,29.90431,0,0,0,4.99884-.42786,28.08678,28.08678,0,0,0,4.886-1.2835,22.12666,22.12666,0,0,0,4.43658-2.18451,15.21179,15.21179,0,0,0,3.55793-3.13007l-2.25208-2.92724a1.76562,1.76562,0,0,0-1.53088-.76508,3.49066,3.49066,0,0,0-1.82428.69745,28.57563,28.57563,0,0,1-2.63459,1.5086,24.722,24.722,0,0,1-3.76068,1.50928,17.18336,17.18336,0,0,1-5.20166.69751,15.46767,15.46767,0,0,1-5.85455-1.05774,11.91063,11.91063,0,0,1-4.50348-3.19763,15.36858,15.36858,0,0,1-2.97253-5.33685,25.17624,25.17624,0,0,1-1.17066-7.52137h30.35425a1.68245,1.68245,0,0,0,1.53088-.62988,5.22733,5.22733,0,0,0,.40558-2.52246,24.70932,24.70932,0,0,0-1.4187-8.66894A18.071,18.071,0,0,0,462.05438,127.542ZM435.39319,140.7597a15.78528,15.78528,0,0,1,4.14319-9.29956q3.33178-3.35439,9.14209-3.35516a12.23333,12.23333,0,0,1,4.88672.92328,10.086,10.086,0,0,1,3.62475,2.61163,11.39739,11.39739,0,0,1,2.25208,4.00873,16.25,16.25,0,0,1,.7658,5.11108Z" transform="translate(-10.01361 -39.65973)"/><path class="eebac8fe-271a-455c-9092-66a74c2ae71d" d="M509.45312,126.95667a12.78108,12.78108,0,0,0-4.7738-3.51331,16.47689,16.47689,0,0,0-6.59735-1.23822,17.27906,17.27906,0,0,0-8.4892,2.02631,25.65319,25.65319,0,0,0-6.64337,5.31457l-.63061-4.95361a2.04331,2.04331,0,0,0-2.16144-1.66675h-4.77387v45.62128h8.01679v-33.5965a21.8641,21.8641,0,0,1,5.69708-4.63867A13.46942,13.46942,0,0,1,495.74,128.6004q4.86338,0,7.228,2.85974,2.36426,2.8604,2.36425,8.039v29.04779H513.349V139.49915a23.83455,23.83455,0,0,0-.99085-7.07117A15.528,15.528,0,0,0,509.45312,126.95667Z" transform="translate(-10.01361 -39.65973)"/><path class="bee3c98e-4ff3-4a60-807d-a38b34accbdc" d="M557.34882,142.471a1.61589,1.61589,0,0,0,.5177,1.21594,1.90247,1.90247,0,0,0,1.37408.49542h9.9978v14.23157q-1.71276.90171-3.42273,1.59851a28.03967,28.03967,0,0,1-3.64776,1.1936,30.35585,30.35585,0,0,1-4.12091.7428,42.69979,42.69979,0,0,1-4.79608.24805,25.12856,25.12856,0,0,1-9.54767-1.75665,21.07407,21.07407,0,0,1-7.476-5.08875,23.05379,23.05379,0,0,1-4.88671-8.129,31.99193,31.99193,0,0,1-1.73365-10.921,31.49348,31.49348,0,0,1,1.666-10.56079,22.52893,22.52893,0,0,1,4.77386-8.01672,20.86175,20.86175,0,0,1,7.5213-5.08881,26.16878,26.16878,0,0,1,9.86261-1.77893,31.18216,31.18216,0,0,1,6.46289.58533,27.41526,27.41526,0,0,1,4.72852,1.4187,21.76038,21.76038,0,0,1,3.40039,1.73364q1.39463.90171,2.52173,1.53156a3.18532,3.18532,0,0,0,1.57617.49548,2.27886,2.27886,0,0,0,1.98175-1.21594l2.47711-3.96344a31.84828,31.84828,0,0,0-4.45886-3.40045,28.51675,28.51675,0,0,0-5.20166-2.567,33.35424,33.35424,0,0,0-6.10193-1.62073,42.22124,42.22124,0,0,0-7.11578-.56305,37.271,37.271,0,0,0-13.66852,2.38654,28.95241,28.95241,0,0,0-17.02368,17.15887,37.49556,37.49556,0,0,0-2.319,13.46576,36.60729,36.60729,0,0,0,2.36426,13.37519,30.65651,30.65651,0,0,0,6.59808,10.42633,29.63479,29.63479,0,0,0,10.08765,6.75482,33.51056,33.51056,0,0,0,12.88049,2.40955,60.17812,60.17812,0,0,0,7.43073-.42786,40.81563,40.81563,0,0,0,6.41754-1.30579,34.44817,34.44817,0,0,0,5.62951-2.18451,35.70243,35.70243,0,0,0,5.06647-3.06244V137.51746H557.34882Z" transform="translate(-10.01361 -39.65973)"/><rect class="bee3c98e-4ff3-4a60-807d-a38b34accbdc" x="577.95837" y="83.26593" width="8.01605" height="45.62128"/><path class="bee3c98e-4ff3-4a60-807d-a38b34accbdc" d="M596.0556,104.52856a5.87659,5.87659,0,0,0-1.82348-1.23822,5.48454,5.48454,0,0,0-2.20679-.45086,5.32226,5.32226,0,0,0-2.18451.45086,5.94911,5.94911,0,0,0-1.80127,1.23822,5.783,5.783,0,0,0-1.23889,1.84656,5.64378,5.64378,0,0,0-.45014,2.22907,5.3217,5.3217,0,0,0,.45014,2.18451,6.01009,6.01009,0,0,0,3.04016,3.04016,5.32179,5.32179,0,0,0,2.18451.45013,5.484,5.484,0,0,0,2.20679-.45013,5.8536,5.8536,0,0,0,1.82348-1.239,6.305,6.305,0,0,0,1.26123-1.8012,5.10486,5.10486,0,0,0,.47315-2.18451,5.412,5.412,0,0,0-.47315-2.22907A6.13057,6.13057,0,0,0,596.0556,104.52856Z" transform="translate(-10.01361 -39.65973)"/><path class="bee3c98e-4ff3-4a60-807d-a38b34accbdc" d="M629.26959,160.53088a1.50081,1.50081,0,0,0-.8327.33722q-.4735.33756-1.149.74353a9.36646,9.36646,0,0,1-1.59845.74274,6.36385,6.36385,0,0,1-2.18451.338,4.87312,4.87312,0,0,1-3.60248-1.39636,5.82052,5.82052,0,0,1-1.39642-4.27838V129.63586h13.06024V123.8266H618.506V108.10876H614.4527a1.86042,1.86042,0,0,0-1.2605.42786,1.702,1.702,0,0,0-.58533,1.1037l-1.84656,14.09644-7.476.94555v3.19763a1.65945,1.65945,0,0,0,.49542,1.32807,1.789,1.789,0,0,0,1.216.42785H610.49v27.92243q0,5.67444,2.905,8.69195,2.9046,3.01787,8.30871,3.01716a16.99489,16.99489,0,0,0,6.035-1.103,14.93771,14.93771,0,0,0,4.99884-3.04016l-2.34192-3.82825A1.38221,1.38221,0,0,0,629.26959,160.53088Z" transform="translate(-10.01361 -39.65973)"/><path class="bee3c98e-4ff3-4a60-807d-a38b34accbdc" d="M691.6427,112.54535a29.08469,29.08469,0,0,0-10.06537-6.82312,35.8636,35.8636,0,0,0-25.96295,0,29.13557,29.13557,0,0,0-10.04309,6.82312,30.73126,30.73126,0,0,0-6.48517,10.44788,39.70514,39.70514,0,0,0,0,26.6159,30.47844,30.47844,0,0,0,6.48517,10.42633,29.03547,29.03547,0,0,0,10.04309,6.77783,36.1839,36.1839,0,0,0,25.96295,0,28.98575,28.98575,0,0,0,10.06537-6.77783,30.45628,30.45628,0,0,0,6.48517-10.42633,39.69228,39.69228,0,0,0,0-26.6159A30.70878,30.70878,0,0,0,691.6427,112.54535Zm-1.80121,34.40686a22.59583,22.59583,0,0,1-4.59338,7.97144,19.69259,19.69259,0,0,1-7.20563,4.9989,26.54142,26.54142,0,0,1-18.87024,0,19.89222,19.89222,0,0,1-7.228-4.9989,22.40165,22.40165,0,0,1-4.61633-7.97144,35.86609,35.86609,0,0,1,0-21.32434,22.38369,22.38369,0,0,1,4.61633-7.99378,20.14115,20.14115,0,0,1,7.228-5.02117,26.21647,26.21647,0,0,1,18.87024,0,19.93749,19.93749,0,0,1,7.20563,5.02117,22.57726,22.57726,0,0,1,4.59338,7.99378,35.86609,35.86609,0,0,1,0,21.32434Z" transform="translate(-10.01361 -39.65973)"/><path class="bee3c98e-4ff3-4a60-807d-a38b34accbdc" d="M744.379,128.082a14.68967,14.68967,0,0,0-5.44971-4.45813,16.466,16.466,0,0,0-7.11578-1.50861,17.08255,17.08255,0,0,0-8.66895,2.1615,24.35605,24.35605,0,0,0-6.688,5.71936l-.6759-5.40368a2.0433,2.0433,0,0,0-2.16144-1.66675H708.8454v61.06872h8.01678v-20.176a16.26723,16.26723,0,0,0,5.29157,3.96271,17.01032,17.01032,0,0,0,7.2279,1.39642,18.31805,18.31805,0,0,0,8.26416-1.82428,18.08818,18.08818,0,0,0,6.19251-4.9989,22.85642,22.85642,0,0,0,3.87286-7.52057,31.47013,31.47013,0,0,0,1.35108-9.3902,37.54661,37.54661,0,0,0-1.216-10.043A21.40143,21.40143,0,0,0,744.379,128.082Zm-7.02588,30.332q-3.42344,4.54953-9.77271,4.54877a13.86082,13.86082,0,0,1-5.87683-1.21594,12.88722,12.88722,0,0,1-4.84143-4.18848V135.49042a19.80064,19.80064,0,0,1,5.4267-5.08875,12.91166,12.91166,0,0,1,6.86774-1.80127,12.134,12.134,0,0,1,4.909.94562,8.84961,8.84961,0,0,1,3.64777,2.99487,14.97353,14.97353,0,0,1,2.27441,5.24695,32.38785,32.38785,0,0,1,.78809,7.65576Q740.77588,153.86517,737.35315,158.41394Z" transform="translate(-10.01361 -39.65973)"/><path class="bee3c98e-4ff3-4a60-807d-a38b34accbdc" d="M783.98615,149.87946a10.29931,10.29931,0,0,0-2.6792-3.30982,15.79322,15.79322,0,0,0-3.783-2.25207q-2.11725-.90061-4.346-1.64374-2.22941-.74313-4.346-1.39569a23.24592,23.24592,0,0,1-3.783-1.50934,8.78857,8.78857,0,0,1-2.67993-2.02631,4.31517,4.31517,0,0,1-1.01318-2.92724,5.62775,5.62775,0,0,1,.6076-2.58936,6.289,6.289,0,0,1,1.75665-2.0946,8.77817,8.77817,0,0,1,2.76984-1.4187,11.986,11.986,0,0,1,3.64777-.5177,14.10464,14.10464,0,0,1,4.05334.5177,19.753,19.753,0,0,1,2.94953,1.126q1.23825.60837,2.09466,1.10376a3.12609,3.12609,0,0,0,1.53082.49543,1.77755,1.77755,0,0,0,1.66681-.99085l1.80121-2.92725a19.13942,19.13942,0,0,0-6.1925-3.89587,21.79876,21.79876,0,0,0-8.08362-1.4187,20.36371,20.36371,0,0,0-6.89075,1.08075,15.51586,15.51586,0,0,0-5.08874,2.905,12.31682,12.31682,0,0,0-3.15308,4.23309,12.1423,12.1423,0,0,0-1.08075,5.02191,11.14554,11.14554,0,0,0,1.01318,4.97656,10.50606,10.50606,0,0,0,2.67994,3.445,15.31066,15.31066,0,0,0,3.80523,2.319q2.13878.92431,4.369,1.64374,2.2284.72162,4.36829,1.37414a21.83143,21.83143,0,0,1,3.80523,1.53089,8.55788,8.55788,0,0,1,2.67994,2.11688,4.78343,4.78343,0,0,1,1.01312,3.13007,7.41268,7.41268,0,0,1-.563,2.88195,6.511,6.511,0,0,1-1.73364,2.38727,8.6096,8.6096,0,0,1-2.92731,1.6438,12.54941,12.54941,0,0,1-4.09863.60761,14.13414,14.13414,0,0,1-4.57105-.63062,16.77064,16.77064,0,0,1-3.107-1.39569q-1.28358-.76584-2.18451-1.39642a3.02214,3.02214,0,0,0-1.71137-.63062,2.4025,2.4025,0,0,0-1.30578.31568,2.73641,2.73641,0,0,0-.85572.90026l-1.89184,3.06244a21.89415,21.89415,0,0,0,6.57507,3.98572,23.03183,23.03183,0,0,0,8.6474,1.5539,22.20028,22.20028,0,0,0,7.38544-1.126,16.068,16.068,0,0,0,5.40442-3.08478A12.73036,12.73036,0,0,0,783.874,160.418,14.91359,14.91359,0,0,0,785,154.58569,10.13082,10.13082,0,0,0,783.98615,149.87946Z" transform="translate(-10.01361 -39.65973)"/></svg>